<svg xmlns="http://www.w3.org/2000/svg" version="1.1" xmlns:xlink="http://www.w3.org/1999/xlink" xmlns:svgjs="http://svgjs.dev/svgjs" width="2000" height="1500" viewBox="0 0 2000 1500"><rect width="2000" height="1500" fill="#ffffff"></rect><g transform="matrix(0.75,0,0,0.75,249.090909090909,636.138159633834)"><svg viewBox="0 0 396 60" data-background-color="#ffffff" preserveAspectRatio="xMidYMid meet" height="303" width="2000" xmlns="http://www.w3.org/2000/svg" xmlns:xlink="http://www.w3.org/1999/xlink"><g id="tight-bounds" transform="matrix(1,0,0,1,0.2400000000000091,0.0625321098788163)"><svg viewBox="0 0 395.52 59.87455338897668" height="59.87455338897668" width="395.52"><g><svg viewBox="0 0 493.89353749850955 74.76652250056904" height="59.87455338897668" width="395.52"><g transform="matrix(1,0,0,1,98.37353749850959,12.383880756354007)"><svg viewBox="0 0 395.52 49.998760987861026" height="49.998760987861026" width="395.52"><g id="textblocktransform"><svg viewBox="0 0 395.52 49.998760987861026" height="49.998760987861026" width="395.52" id="textblock"><g><svg viewBox="0 0 395.52 49.998760987861026" height="49.998760987861026" width="395.52"><g transform="matrix(1,0,0,1,0,0)"><svg width="395.52" viewBox="3.25 -36.23 291.6 36.86" height="49.998760987861026" data-palette-color="#000000"><path d="M26.71-12.28L7.86-12.28Q7.86-7.84 9.83-5.32 11.79-2.81 15.21-2.81L15.21-2.81Q17.72-2.81 19.62-3.89 21.51-4.98 22.14-6.86L22.14-6.86 26-5.76Q24.93-2.73 22.06-1.12 19.19 0.49 15.21 0.49L15.21 0.49Q9.45 0.49 6.35-3.1 3.25-6.69 3.25-13.38L3.25-13.38Q3.25-19.9 6.29-23.4 9.33-26.9 15.06-26.9L15.06-26.9Q20.8-26.9 23.75-23.41 26.71-19.92 26.71-12.87L26.71-12.87 26.71-12.28ZM15.11-23.66L15.11-23.66Q11.84-23.66 9.94-21.52 8.03-19.38 7.91-15.65L7.91-15.65 22.17-15.65Q21.48-23.66 15.11-23.66ZM51.17-4.25L51.05-4.25Q49.85-1.68 47.87-0.52 45.9 0.63 42.94 0.63L42.94 0.63Q38.01 0.63 35.69-2.76 33.37-6.15 33.37-12.99L33.37-12.99Q33.37-26.81 42.94-26.81L42.94-26.81Q45.9-26.81 47.89-25.76 49.88-24.71 51.07-22.31L51.07-22.31 51.12-22.31 51.07-26 51.07-36.23 55.47-36.23 55.47-5.44Q55.47-1.32 55.61 0L55.61 0 51.41 0Q51.32-0.37 51.24-1.78 51.17-3.2 51.17-4.25L51.17-4.25ZM37.91-13.13L37.91-13.13Q37.91-7.71 39.37-5.24 40.82-2.76 44.09-2.76L44.09-2.76Q47.65-2.76 49.36-5.33 51.07-7.91 51.07-13.53L51.07-13.53Q51.07-18.77 49.42-21.17 47.78-23.56 44.14-23.56L44.14-23.56Q40.84-23.56 39.38-21.04 37.91-18.53 37.91-13.13ZM64.52-26.42L68.92-26.42 68.92-9.67Q68.92-5.86 70.11-4.38 71.31-2.91 74.38-2.91L74.38-2.91Q77.53-2.91 79.37-5.05 81.2-7.2 81.2-11.11L81.2-11.11 81.2-26.42 85.62-26.42 85.62-5.64Q85.62-1.03 85.76 0L85.76 0 81.61 0Q81.59-0.12 81.56-0.66 81.54-1.2 81.5-1.89 81.46-2.59 81.42-4.52L81.42-4.52 81.34-4.52Q79.83-1.78 77.84-0.65 75.85 0.49 72.9 0.49L72.9 0.49Q68.55 0.49 66.54-1.67 64.52-3.83 64.52-8.81L64.52-8.81 64.52-26.42ZM93.18-13.23L93.18-13.23Q93.18-19.82 96.33-23.36 99.48-26.9 105.44-26.9L105.44-26.9Q109.88-26.9 112.76-24.77 115.64-22.63 116.33-19.02L116.33-19.02 111.64-18.68Q111.25-20.9 109.68-22.18 108.12-23.46 105.24-23.46L105.24-23.46Q101.38-23.46 99.59-21.07 97.8-18.68 97.8-13.33L97.8-13.33Q97.8-7.91 99.59-5.41 101.38-2.91 105.22-2.91L105.22-2.91Q107.85-2.91 109.59-4.2 111.32-5.49 111.74-8.15L111.74-8.15 116.37-7.86Q116.06-5.52 114.6-3.6 113.15-1.68 110.76-0.6 108.37 0.49 105.41 0.49L105.41 0.49Q99.43 0.49 96.31-3.03 93.18-6.54 93.18-13.23ZM146.79-13.23L146.79-13.23Q146.79-6.57 143.73-3.04 140.66 0.49 134.88 0.49L134.88 0.49Q129.21 0.49 126.2-3.08 123.18-6.64 123.18-13.23L123.18-13.23Q123.18-20.04 126.27-23.47 129.36-26.9 135.02-26.9L135.02-26.9Q140.98-26.9 143.89-23.51 146.79-20.12 146.79-13.23ZM142.18-13.23L142.18-13.23Q142.18-18.48 140.51-21.07 138.83-23.66 135.1-23.66L135.1-23.66Q131.31-23.66 129.56-21.02 127.8-18.38 127.8-13.23L127.8-13.23Q127.8-8.11 129.56-5.43 131.31-2.76 134.83-2.76L134.83-2.76Q138.71-2.76 140.44-5.37 142.18-7.98 142.18-13.23ZM175.62 0L171.2 0 171.2-16.97Q171.2-20.29 169.92-21.9 168.64-23.51 165.83-23.51L165.83-23.51Q162.8-23.51 160.86-21.3 158.92-19.09 158.92-15.31L158.92-15.31 158.92 0 154.53 0 154.53-20.78Q154.53-25.39 154.38-26.42L154.38-26.42 158.53-26.42Q158.56-26.29 158.58-25.76 158.61-25.22 158.64-24.52 158.68-23.83 158.73-21.9L158.73-21.9 158.8-21.9Q161.36-26.9 167.25-26.9L167.25-26.9Q171.47-26.9 173.55-24.62 175.62-22.34 175.62-17.6L175.62-17.6 175.62 0ZM205.62 0L201.21 0 201.21-16.97Q201.21-20.29 199.92-21.9 198.64-23.51 195.83-23.51L195.83-23.51Q192.81-23.51 190.87-21.3 188.93-19.09 188.93-15.31L188.93-15.31 188.93 0 184.53 0 184.53-20.78Q184.53-25.39 184.38-26.42L184.38-26.42 188.53-26.42Q188.56-26.29 188.58-25.76 188.61-25.22 188.64-24.52 188.68-23.83 188.73-21.9L188.73-21.9 188.8-21.9Q191.37-26.9 197.25-26.9L197.25-26.9Q201.47-26.9 203.55-24.62 205.62-22.34 205.62-17.6L205.62-17.6 205.62 0ZM236.73-12.28L217.88-12.28Q217.88-7.84 219.84-5.32 221.81-2.81 225.23-2.81L225.23-2.81Q227.74-2.81 229.63-3.89 231.53-4.98 232.16-6.86L232.16-6.86 236.02-5.76Q234.94-2.73 232.07-1.12 229.21 0.49 225.23 0.49L225.23 0.49Q219.46 0.49 216.36-3.1 213.26-6.69 213.26-13.38L213.26-13.38Q213.26-19.9 216.3-23.4 219.34-26.9 225.08-26.9L225.08-26.9Q230.82-26.9 233.77-23.41 236.73-19.92 236.73-12.87L236.73-12.87 236.73-12.28ZM225.13-23.66L225.13-23.66Q221.86-23.66 219.95-21.52 218.05-19.38 217.93-15.65L217.93-15.65 232.18-15.65Q231.5-23.66 225.13-23.66ZM243.19-13.23L243.19-13.23Q243.19-19.82 246.34-23.36 249.49-26.9 255.45-26.9L255.45-26.9Q259.89-26.9 262.77-24.77 265.65-22.63 266.34-19.02L266.34-19.02 261.65-18.68Q261.26-20.9 259.7-22.18 258.13-23.46 255.25-23.46L255.25-23.46Q251.4-23.46 249.6-21.07 247.81-18.68 247.81-13.33L247.81-13.33Q247.81-7.91 249.6-5.41 251.4-2.91 255.23-2.91L255.23-2.91Q257.87-2.91 259.6-4.2 261.33-5.49 261.75-8.15L261.75-8.15 266.39-7.86Q266.07-5.52 264.62-3.6 263.16-1.68 260.77-0.6 258.38 0.49 255.42 0.49L255.42 0.49Q249.44 0.49 246.32-3.03 243.19-6.54 243.19-13.23ZM278.76-22.95L274.66-22.95 274.66-26.42 278.81-26.42 280.23-33.3 283.16-33.3 283.16-26.42 293.7-26.42 293.7-22.95 283.16-22.95 283.16-7.03Q283.16-5.1 284.19-4.17 285.23-3.25 287.6-3.25L287.6-3.25Q290.87-3.25 294.85-4.08L294.85-4.08 294.85-0.73Q290.72 0.39 286.67 0.39L286.67 0.39Q282.72 0.39 280.74-1.28 278.76-2.95 278.76-6.57L278.76-6.57 278.76-22.95Z" opacity="1" transform="matrix(1,0,0,1,0,0)" fill="#000000" class="wordmark-text-0" data-fill-palette-color="primary" id="text-0"></path></svg></g></svg></g></svg></g></svg></g><g><svg viewBox="0 0 74.76652250056904 74.76652250056904" height="74.76652250056904" width="74.76652250056904"><g><svg></svg></g><g id="icon-0"><svg viewBox="0 0 74.76652250056904 74.76652250056904" height="74.76652250056904" width="74.76652250056904"><g><path d="M0 37.383c0-20.646 16.737-37.383 37.383-37.383 20.646 0 37.383 16.737 37.384 37.383 0 20.646-16.737 37.383-37.384 37.384-20.646 0-37.383-16.737-37.383-37.384zM37.383 70.258c18.156 0 32.874-14.718 32.875-32.875 0-18.156-14.718-32.874-32.875-32.874-18.156 0-32.874 14.718-32.874 32.874 0 18.156 14.718 32.874 32.874 32.875z" data-fill-palette-color="tertiary" fill="#261f20" stroke="transparent"></path></g><g transform="matrix(1,0,0,1,27.155510396404114,19.75487551776189)"><svg viewBox="0 0 20.45550170776081 35.25677146504526" height="35.25677146504526" width="20.45550170776081"><g><svg xmlns="http://www.w3.org/2000/svg" xmlns:xlink="http://www.w3.org/1999/xlink" version="1.1" x="0" y="0" viewBox="21.679106830508616 1 56.85827385947762 98" enable-background="new 0 0 100 100" xml:space="preserve" height="35.25677146504526" width="20.45550170776081" class="icon-dxe-0" data-fill-palette-color="accent" id="dxe-0"><g fill="#261f20" data-fill-palette-color="accent"><path fill-rule="evenodd" clip-rule="evenodd" d="M30.545 28.822C29.38 36.039 30.875 43.672 37.045 47.863 30.758 19.81 45.756 8.664 59.646 1 43.466 24.046 76.542 24.644 78.423 51.13 80.028 73.71 64.507 91.317 46.639 99 46.845 76.175 24.089 73.067 21.801 54.397 20.905 47.094 25.062 33.766 30.545 28.822" fill="#261f20" data-fill-palette-color="accent"></path></g></svg></g></svg></g></svg></g></svg></g></svg></g><defs></defs></svg><rect width="395.52" height="59.87455338897668" fill="none" stroke="none" visibility="hidden"></rect></g></svg></g></svg>